<!--?xml version="1.0" standalone="no"?-->
              <svg id="sw-js-blob-svg" viewBox="0 0 100 100" xmlns="http://www.w3.org/2000/svg" version="1.1">
                    <defs> 
                        <linearGradient id="sw-gradient" x1="0" x2="1" y1="1" y2="0">
                            <stop id="stop1" stop-color="rgba(248, 117, 55, 1)" offset="0%"></stop>
                            <stop id="stop2" stop-color="rgba(251, 168, 31, 1)" offset="100%"></stop>
                        </linearGradient>
                    </defs>
                <path fill="url(#sw-gradient)" d="M17.9,-27.7C24.7,-27,32.7,-25.3,32.6,-20.5C32.5,-15.7,24.2,-7.9,23.5,-0.4C22.8,7.1,29.7,14.1,28.2,16C26.7,18,16.7,14.7,10.5,15.2C4.4,15.6,2.2,19.8,-0.1,20C-2.5,20.2,-4.9,16.5,-10.3,15.7C-15.7,14.8,-24,16.7,-28.5,14.6C-33,12.4,-33.8,6.2,-30.4,2C-27,-2.3,-19.4,-4.6,-15.4,-7.6C-11.4,-10.6,-10.9,-14.3,-8.9,-17.8C-6.9,-21.3,-3.5,-24.5,1,-26.3C5.5,-28.1,11.1,-28.4,17.9,-27.7Z" width="100%" height="100%" transform="translate(50 50)" stroke-width="0" style="transition: 0.3s;" stroke="url(#sw-gradient)"></path>
              </svg>